<svg width="20" height="21" viewBox="0 0 20 21" fill="none" xmlns="http://www.w3.org/2000/svg">
<path d="M6 20.5C5.45 20.5 4.979 20.304 4.587 19.912C4.195 19.52 3.99933 19.0493 4 18.5C4 17.95 4.196 17.479 4.588 17.087C4.98 16.695 5.45067 16.4993 6 16.5C6.55 16.5 7.021 16.696 7.413 17.088C7.805 17.48 8.00067 17.9507 8 18.5C8 19.05 7.804 19.521 7.412 19.913C7.02 20.305 6.54933 20.5007 6 20.5ZM16 20.5C15.45 20.5 14.979 20.304 14.587 19.912C14.195 19.52 13.9993 19.0493 14 18.5C14 17.95 14.196 17.479 14.588 17.087C14.98 16.695 15.4507 16.4993 16 16.5C16.55 16.5 17.021 16.696 17.413 17.088C17.805 17.48 18.0007 17.9507 18 18.5C18 19.05 17.804 19.521 17.412 19.913C17.02 20.305 16.5493 20.5007 16 20.5ZM5.15 4.5L7.55 9.5H14.55L17.3 4.5H5.15ZM4.2 2.5H18.95C19.3333 2.5 19.625 2.671 19.825 3.013C20.025 3.355 20.0333 3.70067 19.85 4.05L16.3 10.45C16.1167 10.7833 15.8707 11.0417 15.562 11.225C15.2533 11.4083 14.916 11.5 14.55 11.5H7.1L6 13.5H18V15.5H6C5.25 15.5 4.68333 15.1707 4.3 14.512C3.91667 13.8533 3.9 13.1993 4.25 12.55L5.6 10.1L2 2.5H0V0.5H3.25L4.2 2.5Z" fill="black"/>
</svg>
