<svg width="25" height="24" viewBox="0 0 25 24" fill="none" xmlns="http://www.w3.org/2000/svg">
<g clip-path="url(#clip0_3_49)">
<mask id="mask0_3_49" style="mask-type:luminance" maskUnits="userSpaceOnUse" x="0" y="0" width="25" height="24">
<path d="M0.0569992 0H24.057V24H0.0569992V0Z" fill="white"/>
</mask>
<g mask="url(#mask0_3_49)">
<path fill-rule="evenodd" clip-rule="evenodd" d="M0.0569992 12.067C0.0569992 18.033 4.39 22.994 10.057 24V15.333H7.057V12H10.057V9.333C10.057 6.333 11.99 4.667 14.724 4.667C15.59 4.667 16.524 4.8 17.39 4.933V8H15.857C14.39 8 14.057 8.733 14.057 9.667V12H17.257L16.724 15.333H14.057V24C19.724 22.994 24.057 18.034 24.057 12.067C24.057 5.43 18.657 0 12.057 0C5.457 0 0.0569992 5.43 0.0569992 12.067Z" fill="#F8FFF8"/>
</g>
</g>
<defs>
<clipPath id="clip0_3_49">
<rect width="24" height="24" fill="white" transform="translate(0.0569992)"/>
</clipPath>
</defs>
</svg>
