<svg width="19" height="18" viewBox="0 0 19 18" fill="none" xmlns="http://www.w3.org/2000/svg">
<path d="M15.393 15.339H12.728V11.162C12.728 10.166 12.708 8.884 11.338 8.884C9.949 8.884 9.737 9.968 9.737 11.089V15.339H7.071V6.75H9.631V7.92H9.666C10.024 7.246 10.894 6.533 12.194 6.533C14.894 6.533 15.394 8.311 15.394 10.624L15.393 15.339ZM4.061 5.575C3.85755 5.57526 3.65606 5.53537 3.46806 5.45761C3.28007 5.37984 3.10927 5.26574 2.96546 5.12184C2.82165 4.97793 2.70765 4.80706 2.63001 4.61901C2.55237 4.43097 2.5126 4.22944 2.513 4.026C2.5132 3.71983 2.60418 3.4206 2.77444 3.16615C2.9447 2.91169 3.18659 2.71343 3.46953 2.59645C3.75246 2.47947 4.06374 2.44902 4.36398 2.50894C4.66422 2.56886 4.93996 2.71648 5.15631 2.93311C5.37266 3.14974 5.51991 3.42566 5.57945 3.72598C5.63899 4.0263 5.60813 4.33753 5.49078 4.62032C5.37343 4.9031 5.17487 5.14474 4.92019 5.31467C4.66551 5.4846 4.36616 5.5752 4.06 5.575H4.061ZM5.397 15.339H2.724V6.75H5.397V15.339ZM16.727 0H1.387C0.650999 0 0.0569992 0.58 0.0569992 1.297V16.703C0.0569992 17.42 0.650999 18 1.385 18H16.724C17.457 18 18.057 17.42 18.057 16.703V1.297C18.057 0.581 17.457 0 16.723 0H16.727Z" fill="#F8FFF8"/>
</svg>
