<svg width="21" height="18" viewBox="0 0 21 18" fill="none" xmlns="http://www.w3.org/2000/svg">
<path d="M13.904 2.67786C13.1441 2.67773 12.4146 2.97584 11.8722 3.50807C11.3299 4.0403 11.0181 4.76413 11.004 5.52386L10.976 7.09886C10.9745 7.18351 10.9551 7.26688 10.9191 7.3435C10.8831 7.42012 10.8312 7.48825 10.767 7.54341C10.7028 7.59857 10.6276 7.63951 10.5464 7.66354C10.4653 7.68758 10.3799 7.69416 10.296 7.68286L8.734 7.46986C6.681 7.18986 4.713 6.24486 2.824 4.67186C2.227 7.98186 3.394 10.2749 6.207 12.0439L7.954 13.1419C8.03686 13.194 8.10572 13.2656 8.15455 13.3504C8.20339 13.4353 8.23072 13.5308 8.23417 13.6286C8.23763 13.7264 8.21709 13.8236 8.17435 13.9117C8.13162 13.9998 8.06798 14.076 7.989 14.1339L6.397 15.2979C7.344 15.3579 8.243 15.3159 8.989 15.1679C13.707 14.2259 16.844 10.6759 16.844 4.81986C16.844 4.34186 15.831 2.67786 13.904 2.67786ZM9.004 5.48786C9.02145 4.52391 9.32289 3.58653 9.87056 2.79308C10.4182 1.99963 11.1878 1.38538 12.0829 1.02723C12.978 0.669075 13.9589 0.582941 14.9027 0.779608C15.8466 0.976276 16.7114 1.44701 17.389 2.13286C18.1 2.12786 18.705 2.30786 20.057 1.48686C19.723 3.12686 19.557 3.83986 18.844 4.81886C18.844 12.4599 14.147 16.1769 9.38 17.1279C6.113 17.7799 1.36 16.7089 0 15.2859C0.693 15.2329 3.513 14.9299 5.143 13.7359C3.763 12.8259 -1.725 9.59586 1.882 0.913861C3.575 2.89086 5.292 4.23586 7.032 4.95086C8.189 5.42586 8.474 5.41586 9.005 5.48886L9.004 5.48786Z" fill="#F8FFF8"/>
</svg>
